<svg xmlns="http://www.w3.org/2000/svg" viewBox="0 0 849.59 569.23">
  <g>
    <path d="M66.89,8.46a527.88,527.88,0,0,1,78.27-5.92c52.89,0,90.55,12.27,115.51,35.54,25.39,23.27,40.19,56.27,40.19,102.39,0,46.54-14.38,84.62-41,110.85-26.65,26.66-70.66,41-126.08,41A595.64,595.64,0,0,1,66.89,289ZM103.7,260.63c9.31,1.69,22.85,2.11,37.23,2.11,78.7,0,121.43-44,121.43-121,.42-67.27-37.65-110-115.5-110-19,0-33.43,1.69-43.16,3.81Z"/>
    <path d="M496.33,156.12H385.48V258.94H509v30.88H348.67V4.65h154V35.54H385.48v90.12H496.33Z"/>
    <path d="M801.54,144.28c0,98.16-59.66,150.2-132.43,150.2-75.31,0-129.2-58.39-129.2-144.7C539.91,59.23,597.18,0,673.34,0,751.19,0,801.54,59.66,801.54,144.28Zm-221.28,4.65c0,60.93,33,115.51,91,115.51,58.38,0,91.39-53.74,91.39-118.47C762.62,89.27,733,30,671.65,30,610.72,30,580.26,86.31,580.26,148.93Z"/>
    <path d="M72.12,366q6.41,0,13.79.14c4.91.1,9.79.37,14.62.84A112.64,112.64,0,0,1,114,369a34.19,34.19,0,0,1,10.72,4.18,51.9,51.9,0,0,1,16.57,16.15q6.83,10.31,6.82,25.34,0,15.87-7.65,27.43t-21.86,17.13v.55Q137,463.7,146.75,476.5t9.75,31.19a59.26,59.26,0,0,1-3.9,21.16A53,53,0,0,1,141,547.09a57.65,57.65,0,0,1-18.93,12.81q-11.28,4.88-26,4.88H0V366Zm7.24,85.49q22.56,0,32.44-7.94t9.89-23.81q0-10.57-3.34-16.7a23.81,23.81,0,0,0-9.19-9.47,36.28,36.28,0,0,0-13.51-4.32,129.15,129.15,0,0,0-16.29-1H26.45v63.21ZM92.73,542.5q17.53,0,27.43-9.47T130,506.85q0-9.74-3.62-16.15a28.15,28.15,0,0,0-9.6-10.16A40.24,40.24,0,0,0,103,475.25a83.7,83.7,0,0,0-16.15-1.53H26.45V542.5Z"/>
    <path d="M260.9,564.78H234.44V483.46L157.59,366h31.46l59.59,94.68L306.84,366h34.08l-80,117.51Z"/>
    <path d="M350,394.23V366H509v28.28H444.76V564.78H414.3V394.23Z"/>
    <path d="M668.31,366v22.28H557.48v63.21H660.79v22.28H557.48V542.5H669.15v22.28H531V366Z"/>
    <path d="M800.72,393.1q-13.23-9.6-33.83-9.61a81.13,81.13,0,0,0-16.43,1.67,43.84,43.84,0,0,0-14.34,5.57,29.39,29.39,0,0,0-10,10.45q-3.75,6.54-3.76,16.29,0,9.18,5.43,14.9a40.31,40.31,0,0,0,14.48,9.32,120.38,120.38,0,0,0,20.47,6q11.41,2.37,23.25,5.15t23.26,6.55a76.57,76.57,0,0,1,20.46,10.16,48.39,48.39,0,0,1,14.48,16.15q5.43,9.75,5.43,24.51,0,15.87-7.1,27.15a58.41,58.41,0,0,1-18.24,18.38A79.37,79.37,0,0,1,799.33,566a121.2,121.2,0,0,1-27.43,3.2,116.38,116.38,0,0,1-31.61-4.18,77.82,77.82,0,0,1-26.17-12.67,60,60,0,0,1-17.82-21.72q-6.56-13.21-6.55-31.32h25.06q0,12.53,4.88,21.58a44.28,44.28,0,0,0,12.81,14.9A54.22,54.22,0,0,0,751,544.45a84.78,84.78,0,0,0,21.72,2.78,99.23,99.23,0,0,0,18-1.67A52.67,52.67,0,0,0,807,539.85a32.37,32.37,0,0,0,11.69-11q4.46-7,4.46-17.82,0-10.29-5.43-16.71a40,40,0,0,0-14.48-10.44,106.29,106.29,0,0,0-20.47-6.54q-11.41-2.5-23.25-5.15t-23.25-6.13a83.79,83.79,0,0,1-20.47-9.19,43.85,43.85,0,0,1-14.48-14.76q-5.43-9-5.43-22.69,0-15,6.13-26a53.46,53.46,0,0,1,16.29-18.1,73.14,73.14,0,0,1,23.11-10.58A102,102,0,0,1,768,361.22a106.45,106.45,0,0,1,28.41,3.62,64.41,64.41,0,0,1,23,11.41A55,55,0,0,1,835,395.89q5.71,11.83,6.27,28.26H816.18Q813.95,402.72,800.72,393.1Z"/>
  </g>
</svg>
