<svg xmlns="http://www.w3.org/2000/svg" viewBox="0 0 849.59 534.23">
  <g>
    <path d="M148.3,249.23a527.88,527.88,0,0,1,78.27-5.92c52.89,0,90.54,12.27,115.51,35.54,25.38,23.27,40.19,56.27,40.19,102.39,0,46.54-14.38,84.62-41,110.85-26.66,26.66-70.66,41-126.08,41a595.38,595.38,0,0,1-66.85-3.38ZM185.11,501.4c9.3,1.69,22.84,2.11,37.23,2.11,78.7,0,121.43-44,121.43-121,.42-67.28-37.66-110-115.51-110-19,0-33.42,1.69-43.15,3.81Z" transform="translate(-81.41 -240.77)"/>
    <path d="M577.74,396.89H466.89V499.71H590.43v30.88H430.08V245.42h154v30.89H466.89v90.12H577.74Z" transform="translate(-81.41 -240.77)"/>
    <path d="M882,385.05c0,98.16-59.66,150.2-132.43,150.2-75.31,0-128.2-58.39-128.2-144.7,0-90.55,56.27-149.78,132.43-149.78C831.6,240.77,882,300.43,882,385.05ZM660.67,389.7c0,60.93,33,115.51,91,115.51C810,505.21,843,451.47,843,386.74c0-56.7-29.61-115.93-91-115.93C691.13,270.81,660.67,327.08,660.67,389.7Z" transform="translate(-81.41 -240.77)"/>
    <path d="M153.53,571.72q6.41,0,13.78.14t14.62.84a112.51,112.51,0,0,1,13.51,2.08A34.19,34.19,0,0,1,206.16,579a51.8,51.8,0,0,1,16.57,16.15q6.83,10.3,6.82,25.34,0,15.87-7.66,27.43T200,665v.55q18.39,3.9,28.13,16.71t9.74,31.19A59.47,59.47,0,0,1,234,734.62a53.26,53.26,0,0,1-11.56,18.24,57.7,57.7,0,0,1-18.94,12.81q-11.26,4.88-26,4.87H81.41V571.72Zm7.24,85.49q22.56,0,32.44-7.94t9.89-23.81q0-10.58-3.34-16.7a23.81,23.81,0,0,0-9.19-9.47A36.16,36.16,0,0,0,177.06,595a129.26,129.26,0,0,0-16.29-1H107.86v63.21Zm13.37,91.06q17.54,0,27.43-9.47t9.88-26.18q0-9.74-3.62-16.15a28.09,28.09,0,0,0-9.61-10.16A40.19,40.19,0,0,0,184.44,681a83.7,83.7,0,0,0-16.15-1.53H107.86v68.78Z" transform="translate(-81.41 -240.77)"/>
    <path d="M342.3,770.54H315.85V689.23L239,571.72h31.47l59.59,94.68,58.2-94.68h34.07l-80,117.51Z" transform="translate(-81.41 -240.77)"/>
    <path d="M431.44,600V571.72h159V600H526.17V770.54H495.71V600Z" transform="translate(-81.41 -240.77)"/>
    <path d="M749.72,571.72V594H638.89v63.21H742.2v22.28H638.89v68.78H750.56v22.27H612.44V571.72Z" transform="translate(-81.41 -240.77)"/>
    <path d="M882.13,598.87q-13.23-9.6-33.83-9.61a81.13,81.13,0,0,0-16.43,1.67,44,44,0,0,0-14.35,5.57,29.45,29.45,0,0,0-10,10.45q-3.76,6.54-3.76,16.29,0,9.18,5.43,14.89a40.19,40.19,0,0,0,14.48,9.33,121,121,0,0,0,20.47,6q11.42,2.37,23.25,5.15t23.25,6.54a77,77,0,0,1,20.47,10.17,48.39,48.39,0,0,1,14.48,16.15Q931,701.21,931,716q0,15.87-7.1,27.15a58.48,58.48,0,0,1-18.24,18.37,79.15,79.15,0,0,1-24.92,10.31,121.2,121.2,0,0,1-27.43,3.2,116.38,116.38,0,0,1-31.61-4.18,77.73,77.73,0,0,1-26.17-12.67,60,60,0,0,1-17.83-21.72q-6.54-13.21-6.54-31.32h25.06q0,12.52,4.88,21.58a44.12,44.12,0,0,0,12.8,14.89,54.23,54.23,0,0,0,18.52,8.64A85.33,85.33,0,0,0,854.14,753a99.07,99.07,0,0,0,18-1.67,52.67,52.67,0,0,0,16.29-5.71,32.41,32.41,0,0,0,11.7-11q4.45-7,4.46-17.82,0-10.31-5.43-16.71a40,40,0,0,0-14.48-10.44,106.29,106.29,0,0,0-20.47-6.54q-11.43-2.5-23.25-5.16t-23.26-6.12a83.88,83.88,0,0,1-20.46-9.19,43.85,43.85,0,0,1-14.48-14.76q-5.43-9-5.43-22.69,0-15,6.12-26a53.46,53.46,0,0,1,16.29-18.1,73.19,73.19,0,0,1,23.12-10.58A102,102,0,0,1,849.41,567a106.38,106.38,0,0,1,28.4,3.62,64.46,64.46,0,0,1,23,11.41,55.27,55.27,0,0,1,15.59,19.64q5.7,11.83,6.27,28.26H897.58Q895.36,608.49,882.13,598.87Z" transform="translate(-81.41 -240.77)"/>
  </g>
</svg>
