<?xml version="1.0" standalone="no"?>
<!DOCTYPE svg PUBLIC "-//W3C//DTD SVG 20010904//EN"
 "http://www.w3.org/TR/2001/REC-SVG-20010904/DTD/svg10.dtd">
<svg version="1.0" xmlns="http://www.w3.org/2000/svg"
 width="685.000000pt" height="685.000000pt" viewBox="0 0 685.000000 685.000000"
 preserveAspectRatio="xMidYMid meet">
<metadata>
Created by potrace 1.14, written by Peter Selinger 2001-2017
</metadata>
<g transform="translate(0.000000,685.000000) scale(0.100000,-0.100000)"
fill="#000000" stroke="none">
<path d="M2078 6845 c-2 -2 -65 -6 -142 -9 -76 -4 -164 -8 -195 -11 -31 -2
-96 -7 -146 -10 -49 -3 -110 -8 -135 -11 -25 -2 -72 -7 -105 -9 -145 -13 -230
-22 -230 -25 0 0 -18 -3 -40 -5 -59 -4 -207 -23 -255 -31 -14 -2 -45 -7 -70
-10 -25 -3 -54 -7 -65 -9 -11 -2 -23 -4 -27 -4 -5 -1 -8 -1493 -8 -3316 0
-2645 3 -3315 13 -3316 6 -1 21 -3 32 -4 11 -1 56 -6 100 -10 44 -4 96 -9 115
-11 19 -2 69 -6 110 -9 41 -3 107 -8 145 -11 72 -6 114 -8 365 -20 174 -9
1028 -9 1155 -1 49 3 115 9 145 12 30 3 79 8 109 10 29 2 65 6 80 9 14 3 47 8
73 11 53 6 111 14 148 20 14 3 41 7 60 10 127 20 483 100 550 124 14 5 63 21
110 36 47 14 94 29 105 34 36 15 220 85 225 86 3 0 68 31 145 68 149 72 395
215 395 229 0 4 5 8 10 8 9 0 62 36 135 93 182 139 353 317 543 562 17 22 152
226 152 229 0 3 20 37 43 78 40 66 147 281 147 293 0 3 9 24 20 48 57 125 159
438 183 567 3 14 11 48 17 75 14 62 17 74 24 116 3 19 7 43 10 54 2 11 7 45
12 75 4 30 8 57 9 60 4 16 20 166 32 295 16 184 8 735 -13 870 -9 63 -24 171
-25 185 -1 8 -5 38 -10 65 -5 28 -12 64 -15 80 -3 17 -9 46 -14 65 -5 19 -11
46 -14 60 -7 41 -18 84 -25 95 -3 6 -6 18 -7 28 -1 9 -3 19 -4 22 -1 3 -4 10
-5 15 -1 6 -3 11 -5 13 -1 1 -3 9 -5 17 -6 26 -62 193 -78 230 -18 44 -30 74
-32 80 -17 48 -117 248 -151 302 -13 21 -24 40 -24 43 0 19 -207 306 -285 395
-52 60 -259 264 -304 300 -24 19 -48 40 -55 45 -20 19 -130 100 -176 130 -25
17 -46 33 -48 38 -2 4 -7 7 -12 7 -4 0 -39 19 -76 41 -76 47 -256 139 -271
139 -5 0 -14 5 -21 12 -6 6 -17 13 -24 14 -7 2 -42 15 -77 29 -97 41 -281 105
-281 98 0 -3 -6 -1 -12 5 -7 6 -17 11 -23 12 -5 0 -31 7 -57 15 -61 18 -350
85 -391 90 -18 3 -43 7 -57 10 -84 18 -328 49 -475 61 -44 3 -102 8 -130 11
-55 5 -892 12 -897 8z m847 -698 c22 -4 67 -9 100 -12 118 -12 188 -22 258
-36 29 -6 61 -12 72 -14 183 -29 481 -129 681 -226 105 -51 341 -196 379 -232
7 -7 32 -28 56 -47 68 -54 230 -218 291 -296 159 -201 298 -464 373 -704 9
-30 19 -62 22 -70 3 -8 8 -23 9 -32 2 -10 13 -52 24 -93 11 -41 23 -92 26
-113 3 -20 7 -44 9 -52 3 -8 7 -33 10 -55 3 -22 8 -51 10 -65 3 -14 7 -52 10
-85 3 -33 8 -71 10 -85 3 -14 7 -98 10 -188 3 -90 6 -166 6 -170 1 -4 1 -9 0
-12 -1 -3 -4 -81 -6 -175 -2 -93 -6 -179 -9 -190 -2 -11 -7 -58 -11 -105 -3
-47 -8 -92 -10 -100 -3 -8 -7 -33 -10 -55 -6 -48 -36 -218 -49 -270 -12 -54
-49 -186 -63 -230 -10 -27 -18 -52 -18 -55 -2 -15 -29 -88 -38 -105 -6 -11
-12 -25 -13 -31 -1 -7 -15 -40 -30 -75 -16 -35 -29 -66 -29 -69 -1 -5 -36 -72
-80 -153 -97 -179 -223 -345 -380 -502 -100 -100 -286 -252 -370 -302 -173
-103 -316 -176 -421 -214 -33 -11 -72 -27 -89 -34 -29 -13 -181 -61 -220 -70
-11 -2 -40 -9 -65 -16 -25 -6 -52 -12 -60 -14 -8 -2 -35 -8 -60 -14 -25 -5
-58 -12 -75 -15 -207 -34 -257 -40 -420 -53 -191 -16 -957 -6 -1049 13 -12 2
-43 7 -71 9 -27 3 -59 7 -70 9 -11 3 -23 5 -27 5 -5 1 -8 1198 -8 2661 l0
2660 28 5 c15 4 38 9 52 12 14 2 39 7 55 9 30 3 95 14 127 19 9 2 45 6 80 10
35 3 77 7 93 10 17 2 82 7 145 10 63 4 117 8 118 10 6 6 653 -2 697 -8z"/>
</g>
</svg>
